<mxfile host="Electron" modified="2023-12-24T09:48:47.822Z" agent="Mozilla/5.0 (Windows NT 10.0; Win64; x64) AppleWebKit/537.36 (KHTML, like Gecko) draw.io/22.1.11 Chrome/114.0.5735.289 Electron/25.9.8 Safari/537.36" etag="Wlz8r9_4vIWMwOh5lzeB" version="22.1.11" type="device">
  <diagram name="Page-1" id="LtMPOSMvzV6gFBnCF_me">
    <mxGraphModel dx="674" dy="463" grid="1" gridSize="10" guides="1" tooltips="1" connect="1" arrows="1" fold="1" page="0" pageScale="1" pageWidth="850" pageHeight="1100" math="0" shadow="0">
      <root>
        <mxCell id="0" />
        <mxCell id="1" parent="0" />
        <mxCell id="-0KTXw_X6UCVRfEU2iS6-6" style="edgeStyle=orthogonalEdgeStyle;rounded=0;orthogonalLoop=1;jettySize=auto;html=1;" parent="1" source="8Ifmvfzh9Me1tGv9ybPd-17" target="-0KTXw_X6UCVRfEU2iS6-2" edge="1">
          <mxGeometry relative="1" as="geometry" />
        </mxCell>
        <mxCell id="-0KTXw_X6UCVRfEU2iS6-7" value="不满足" style="edgeLabel;html=1;align=center;verticalAlign=middle;resizable=0;points=[];" parent="-0KTXw_X6UCVRfEU2iS6-6" vertex="1" connectable="0">
          <mxGeometry x="-0.7029" y="-3" relative="1" as="geometry">
            <mxPoint x="3" y="3" as="offset" />
          </mxGeometry>
        </mxCell>
        <mxCell id="-0KTXw_X6UCVRfEU2iS6-9" style="edgeStyle=orthogonalEdgeStyle;rounded=0;orthogonalLoop=1;jettySize=auto;html=1;" parent="1" source="8Ifmvfzh9Me1tGv9ybPd-17" target="8Ifmvfzh9Me1tGv9ybPd-19" edge="1">
          <mxGeometry relative="1" as="geometry">
            <Array as="points">
              <mxPoint x="400" y="325" />
            </Array>
          </mxGeometry>
        </mxCell>
        <mxCell id="-0KTXw_X6UCVRfEU2iS6-10" value="满足" style="edgeLabel;html=1;align=center;verticalAlign=middle;resizable=0;points=[];" parent="-0KTXw_X6UCVRfEU2iS6-9" vertex="1" connectable="0">
          <mxGeometry x="0.0709" y="4" relative="1" as="geometry">
            <mxPoint x="-4" y="-4" as="offset" />
          </mxGeometry>
        </mxCell>
        <mxCell id="8Ifmvfzh9Me1tGv9ybPd-17" value="&lt;font face=&quot;consolas&quot;&gt;条件&lt;/font&gt;" style="rhombus;whiteSpace=wrap;html=1;fillColor=#fad7ac;strokeColor=#b46504;" parent="1" vertex="1">
          <mxGeometry x="420" y="310" width="60" height="30" as="geometry" />
        </mxCell>
        <mxCell id="VnJXf6QNAvAWznYNdrE5-1" style="edgeStyle=orthogonalEdgeStyle;rounded=0;orthogonalLoop=1;jettySize=auto;html=1;" edge="1" parent="1" source="8Ifmvfzh9Me1tGv9ybPd-19">
          <mxGeometry relative="1" as="geometry">
            <mxPoint x="450" y="480" as="targetPoint" />
            <Array as="points">
              <mxPoint x="400" y="450" />
              <mxPoint x="450" y="450" />
            </Array>
          </mxGeometry>
        </mxCell>
        <mxCell id="8Ifmvfzh9Me1tGv9ybPd-19" value="&lt;font face=&quot;consolas&quot;&gt;break&lt;/font&gt;" style="rounded=0;whiteSpace=wrap;html=1;fillColor=#fad7ac;strokeColor=#b46504;" parent="1" vertex="1">
          <mxGeometry x="370" y="350" width="60" height="20" as="geometry" />
        </mxCell>
        <mxCell id="8Ifmvfzh9Me1tGv9ybPd-40" style="edgeStyle=orthogonalEdgeStyle;rounded=0;orthogonalLoop=1;jettySize=auto;html=1;entryX=0.5;entryY=0;entryDx=0;entryDy=0;" parent="1" edge="1">
          <mxGeometry relative="1" as="geometry">
            <mxPoint x="449.58" y="250" as="sourcePoint" />
            <mxPoint x="449.58" y="280" as="targetPoint" />
          </mxGeometry>
        </mxCell>
        <mxCell id="8Ifmvfzh9Me1tGv9ybPd-44" value="满足" style="edgeLabel;html=1;align=center;verticalAlign=middle;resizable=0;points=[];" parent="8Ifmvfzh9Me1tGv9ybPd-40" vertex="1" connectable="0">
          <mxGeometry x="0.619" y="-2" relative="1" as="geometry">
            <mxPoint x="2" y="-22" as="offset" />
          </mxGeometry>
        </mxCell>
        <mxCell id="Y2aI2raSEUyINizC8spM-14" style="edgeStyle=orthogonalEdgeStyle;rounded=0;orthogonalLoop=1;jettySize=auto;html=1;" parent="1" source="8Ifmvfzh9Me1tGv9ybPd-36" edge="1">
          <mxGeometry relative="1" as="geometry">
            <Array as="points">
              <mxPoint x="350" y="225" />
              <mxPoint x="350" y="450" />
              <mxPoint x="450" y="450" />
            </Array>
            <mxPoint x="450" y="480" as="targetPoint" />
          </mxGeometry>
        </mxCell>
        <mxCell id="Y2aI2raSEUyINizC8spM-22" value="不满足" style="edgeLabel;html=1;align=center;verticalAlign=middle;resizable=0;points=[];" parent="Y2aI2raSEUyINizC8spM-14" vertex="1" connectable="0">
          <mxGeometry x="-0.8919" y="1" relative="1" as="geometry">
            <mxPoint x="-17" y="-1" as="offset" />
          </mxGeometry>
        </mxCell>
        <mxCell id="8Ifmvfzh9Me1tGv9ybPd-36" value="条件" style="rhombus;whiteSpace=wrap;html=1;fillColor=#fad9d5;strokeColor=#ae4132;fontFamily=consolas;" parent="1" vertex="1">
          <mxGeometry x="420" y="210" width="60" height="30" as="geometry" />
        </mxCell>
        <mxCell id="Y2aI2raSEUyINizC8spM-6" style="edgeStyle=orthogonalEdgeStyle;rounded=0;orthogonalLoop=1;jettySize=auto;html=1;" parent="1" source="8Ifmvfzh9Me1tGv9ybPd-38" target="8Ifmvfzh9Me1tGv9ybPd-17" edge="1">
          <mxGeometry relative="1" as="geometry" />
        </mxCell>
        <mxCell id="8Ifmvfzh9Me1tGv9ybPd-38" value="操作" style="rounded=0;whiteSpace=wrap;html=1;fillColor=#fad9d5;strokeColor=#ae4132;fontFamily=consolas;" parent="1" vertex="1">
          <mxGeometry x="420" y="270" width="60" height="20" as="geometry" />
        </mxCell>
        <mxCell id="Y2aI2raSEUyINizC8spM-10" style="edgeStyle=orthogonalEdgeStyle;rounded=0;orthogonalLoop=1;jettySize=auto;html=1;" parent="1" source="-0KTXw_X6UCVRfEU2iS6-2" edge="1">
          <mxGeometry relative="1" as="geometry">
            <mxPoint x="450" y="190" as="targetPoint" />
            <mxPoint x="450" y="470" as="sourcePoint" />
            <Array as="points">
              <mxPoint x="450" y="430" />
              <mxPoint x="500" y="430" />
              <mxPoint x="500" y="190" />
            </Array>
          </mxGeometry>
        </mxCell>
        <mxCell id="Y2aI2raSEUyINizC8spM-19" style="edgeStyle=orthogonalEdgeStyle;rounded=0;orthogonalLoop=1;jettySize=auto;html=1;" parent="1" target="8Ifmvfzh9Me1tGv9ybPd-36" edge="1">
          <mxGeometry relative="1" as="geometry">
            <mxPoint x="450" y="170" as="sourcePoint" />
            <Array as="points">
              <mxPoint x="450" y="180" />
              <mxPoint x="450" y="180" />
            </Array>
          </mxGeometry>
        </mxCell>
        <mxCell id="-0KTXw_X6UCVRfEU2iS6-2" value="操作" style="rounded=0;whiteSpace=wrap;html=1;fillColor=#fad9d5;strokeColor=#ae4132;fontFamily=consolas;" parent="1" vertex="1">
          <mxGeometry x="420" y="390" width="60" height="20" as="geometry" />
        </mxCell>
      </root>
    </mxGraphModel>
  </diagram>
</mxfile>
